<svg width="633" height="646" viewBox="0 0 633 646" fill="none" xmlns="http://www.w3.org/2000/svg">
<path d="M613.611 199.684C600.048 162.491 579.936 128.71 553.407 98.4778C526.812 68.2456 493.732 44.0189 454.104 25.8659C423.605 11.8758 389.335 3.27704 351.426 0.0695648V129.87C365.981 132.19 379.676 135.876 392.246 141.267C414.475 150.821 433.595 164.333 449.605 182.009C465.615 199.616 477.788 220.362 486.257 244.111C490.689 256.668 493.865 269.907 495.982 283.693H632.664C630.084 255.44 623.733 227.391 613.611 199.548V199.684Z" fill="#ECA402"/>
<path d="M496.648 354.87C494.664 369.884 491.488 384.42 486.658 398.273C478.521 421.818 466.414 442.496 450.47 460.376C434.46 478.324 415.208 492.314 392.648 502.346C370.154 512.446 344.75 517.428 316.566 517.428C288.383 517.428 263.111 512.378 240.882 502.346C218.586 492.246 199.466 478.256 183.522 460.376C167.512 442.496 155.471 421.749 147.268 398.273C139.13 374.729 135.029 349.547 135.029 322.727C135.029 294.201 139.13 267.995 147.268 244.246C155.405 220.429 167.446 199.751 183.522 182.144C199.533 164.537 218.653 150.956 240.882 141.402C253.716 135.943 267.676 132.189 282.561 129.869V0C244.322 3.13924 209.787 11.738 179.024 25.8646C139.395 44.0858 106.316 68.2442 79.7203 98.4764C53.1248 128.709 33.2114 162.421 19.9136 199.683C6.61587 236.944 0 274.547 0 312.627V331.121C0 365.243 6.35127 400.798 19.1198 437.787C31.8883 474.707 51.2725 509.034 77.3388 540.631C103.405 572.296 136.352 597.751 176.245 617.064C216.138 636.378 262.912 646 316.632 646C370.353 646 417.193 636.378 457.02 617.064C496.913 597.751 529.86 572.296 555.926 540.631C581.992 509.034 601.509 474.707 614.542 437.787C624.598 409.329 630.684 381.758 633 354.938H496.715L496.648 354.87Z" fill="#105A63"/>
<path d="M316.961 401.82C361.136 401.82 396.946 364.88 396.946 319.313C396.946 273.745 361.136 236.806 316.961 236.806C272.787 236.806 236.976 273.745 236.976 319.313C236.976 364.88 272.787 401.82 316.961 401.82Z" fill="#ECA402"/>
</svg>
