<svg width="148" height="54" viewBox="0 0 148 54" fill="none" xmlns="http://www.w3.org/2000/svg">
<g filter="url(#filter0_d_3340_18558)">
<ellipse cx="34.5" cy="23" rx="3.5" ry="4" fill="#ECA402" fill-opacity="0.74" shape-rendering="crispEdges"/>
</g>
<path d="M0 33.2354V29.5267H12.7749V33.2354H0ZM4.55609 48.4541V32.7169H8.20002V48.4541H4.55609Z" fill="white"/>
<path d="M15.0649 48.4541V29.5294H18.7089V48.4541H15.0649ZM18.0647 40.8063V37.073H26.1966V40.8063H18.0647ZM25.5524 48.4541V29.5294H29.1963V48.4541H25.5524Z" fill="white"/>
<path d="M32.8848 48.4541V29.5294H36.5287V48.4541H32.8848Z" fill="white"/>
<path d="M40.2148 48.4541V29.5294H46.1908L52.3008 45.006H53.0555L52.6112 45.4724V29.5294H56.0318V48.4541H50.011L43.901 32.9775H43.1464L43.5907 32.5112V48.4541H40.2124H40.2148Z" fill="white"/>
<path d="M59.6807 48.4541V29.5294H63.3246V48.4541H59.6807ZM70.3444 48.4541L64.7446 39.6131H62.4994L69.2983 29.5267H73.4759L67.3658 38.5734L67.3212 36.7328L74.743 48.4514H70.3444V48.4541Z" fill="white"/>
<path d="M85.7428 49C84.5438 49 83.4953 48.7284 82.5996 48.1825C81.7039 47.6367 81.0033 46.896 80.5002 45.9524C79.9972 45.0115 79.7456 43.9609 79.7456 42.8033V42.4412C79.7456 41.1794 80.0489 40.0547 80.6578 39.0699C81.2643 38.0852 82.0495 37.3418 83.0134 36.8398L84.4569 39.0178C84.0572 39.3278 83.721 39.7749 83.446 40.3537C83.1709 40.9325 83.0345 41.61 83.0345 42.3891C83.0345 42.9953 83.1427 43.5439 83.3566 44.035C83.5706 44.526 83.8926 44.9073 84.3228 45.1761C84.7531 45.4449 85.2938 45.5766 85.945 45.5766C86.8031 45.5766 87.593 45.3078 88.3124 44.7729C89.0317 44.2379 89.6077 43.3903 90.045 42.2327C90.4823 41.0751 90.7009 39.5637 90.7009 37.6956H93.8112C93.8112 39.528 93.5996 41.1437 93.1788 42.5427C92.758 43.9417 92.1702 45.1212 91.4226 46.0813C90.675 47.0414 89.8123 47.7656 88.8343 48.2593C87.8563 48.7531 86.8266 48.9972 85.7452 48.9972L85.7428 49ZM91.0535 48.4541L84.8542 40.65C84.1724 39.7859 83.6317 39.0288 83.232 38.3814C82.8324 37.734 82.5432 37.1059 82.3645 36.5024C82.1859 35.8962 82.0989 35.2405 82.0989 34.5328C82.0989 33.4603 82.2987 32.5358 82.6984 31.7595C83.098 30.9832 83.7163 30.3715 84.5532 29.9326C85.3902 29.491 86.4739 29.2715 87.8093 29.2715C88.357 29.2715 88.9166 29.3017 89.4878 29.3621C90.0567 29.4224 90.5575 29.4965 90.9877 29.5815V33.0049C90.6915 32.9528 90.3295 32.9007 89.8992 32.8486C89.469 32.7964 89.0435 32.758 88.6227 32.7306C88.1995 32.7059 87.8563 32.6922 87.5883 32.6922C86.7137 32.6922 86.1284 32.8732 85.8321 33.2381C85.5359 33.6002 85.3878 34.1022 85.3878 34.7413C85.3878 35.3283 85.5101 35.8962 85.7546 36.4393C85.9991 36.9824 86.4034 37.6106 86.9653 38.3183L94.9866 48.4541H91.0535ZM88.6086 38.2388V35.2049H94.9185V38.2388H88.6086Z" fill="#ECA402"/>
<path d="M106.873 48.9479C105.643 48.9479 104.581 48.6763 103.685 48.1304C102.789 47.5873 102.101 46.7945 101.619 45.7576C101.137 44.7208 100.897 43.4589 100.897 41.9722V41.0121H104.496V42.2053C104.496 43.0337 104.708 43.7058 105.129 44.2133C105.552 44.7235 106.132 44.9786 106.873 44.9786C107.614 44.9786 108.173 44.7235 108.594 44.2133C109.017 43.7031 109.226 43.0337 109.226 42.2053V32.7169H112.87V41.9722C112.87 43.4589 112.63 44.7208 112.148 45.7576C111.667 46.7945 110.978 47.5846 110.082 48.1304C109.186 48.6736 108.117 48.9479 106.871 48.9479H106.873ZM102.785 33.2354V29.5267H112.873V33.2354H102.785Z" fill="white"/>
<path d="M135.446 48.5858V29.3758H139.001V48.5858H135.446ZM138.557 39.8462V37.3061H141.756C142.452 37.3061 142.955 37.0976 143.268 36.6834C143.578 36.2692 143.733 35.7151 143.733 35.0238C143.733 34.2969 143.578 33.7264 143.268 33.3121C142.957 32.8979 142.452 32.6895 141.756 32.6895H138.557V29.3703H141.535C143.402 29.3703 144.836 29.8284 145.835 30.7446C146.834 31.6608 147.335 32.9665 147.335 34.659V35.0485C147.335 36.2253 147.079 37.1662 146.568 37.8739C146.058 38.5817 145.37 39.0891 144.502 39.3909C143.635 39.6926 142.647 39.8435 141.535 39.8435H138.557V39.8462ZM145.179 38.4335C146.054 38.7545 146.742 39.2674 147.246 39.9752C147.749 40.6829 148 41.643 148 42.8527V43.2148C148 44.3394 147.777 45.3023 147.335 46.106C146.891 46.9097 146.239 47.5242 145.379 47.9466C144.518 48.3691 143.454 48.583 142.179 48.583H138.557V45.2639H142.356C143.037 45.2639 143.548 45.0554 143.888 44.6412C144.229 44.227 144.399 43.64 144.399 42.8774C144.399 42.1148 144.227 41.5332 143.888 41.1273C143.548 40.7213 143.037 40.5183 142.356 40.5183H138.557V37.9507H142.179C143.305 37.9507 144.305 38.1098 145.179 38.4308" fill="white"/>
<path d="M132.136 35.1693C131.765 34.0199 131.217 32.9775 130.493 32.0449C129.766 31.1122 128.864 30.3633 127.782 29.801C126.95 29.3676 126.014 29.1042 124.98 29.0055V33.0132C125.377 33.0845 125.751 33.1997 126.094 33.367C126.701 33.6605 127.223 34.0802 127.66 34.6234C128.097 35.1693 128.431 35.8084 128.659 36.5408C128.779 36.9276 128.866 37.3363 128.925 37.7642H132.656C132.585 36.8919 132.414 36.0251 132.136 35.1665V35.1693Z" fill="#ECA402"/>
<path d="M128.941 39.9587C128.887 40.4223 128.8 40.8694 128.668 41.2974C128.447 42.0243 128.116 42.6634 127.678 43.2148C127.241 43.7689 126.715 44.1996 126.101 44.5123C125.485 44.8222 124.794 44.9786 124.023 44.9786C123.252 44.9786 122.563 44.8222 121.956 44.5123C121.35 44.2023 120.826 43.7689 120.391 43.2148C119.953 42.6607 119.624 42.0215 119.401 41.2974C119.178 40.5732 119.067 39.7941 119.067 38.963C119.067 38.0824 119.178 37.2732 119.401 36.5381C119.624 35.8029 119.953 35.1638 120.391 34.6206C120.828 34.0775 121.35 33.6578 121.956 33.3643C122.307 33.1942 122.687 33.079 123.094 33.0077V29C122.05 29.0988 121.108 29.3621 120.268 29.7982C119.187 30.3606 118.284 31.1067 117.558 32.0421C116.831 32.9748 116.288 34.0171 115.924 35.1665C115.562 36.3159 115.378 37.4789 115.378 38.653V39.2236C115.378 40.2769 115.552 41.3742 115.9 42.5153C116.248 43.6564 116.777 44.7153 117.49 45.6918C118.2 46.6684 119.1 47.4556 120.188 48.0509C121.277 48.6461 122.556 48.9451 124.02 48.9451C125.485 48.9451 126.764 48.6461 127.852 48.0509C128.941 47.4556 129.841 46.6684 130.551 45.6918C131.261 44.7153 131.795 43.6564 132.15 42.5153C132.423 41.6375 132.592 40.7844 132.653 39.956H128.934L128.941 39.9587Z" fill="white"/>
<path d="M124.037 41.4071C125.242 41.4071 126.219 40.2674 126.219 38.8615C126.219 37.4556 125.242 36.3159 124.037 36.3159C122.832 36.3159 121.855 37.4556 121.855 38.8615C121.855 40.2674 122.832 41.4071 124.037 41.4071Z" fill="#ECA402"/>
<defs>
<filter id="filter0_d_3340_18558" x="8" y="0" width="53" height="54" filterUnits="userSpaceOnUse" color-interpolation-filters="sRGB">
<feFlood flood-opacity="0" result="BackgroundImageFix"/>
<feColorMatrix in="SourceAlpha" type="matrix" values="0 0 0 0 0 0 0 0 0 0 0 0 0 0 0 0 0 0 127 0" result="hardAlpha"/>
<feMorphology radius="17" operator="dilate" in="SourceAlpha" result="effect1_dropShadow_3340_18558"/>
<feOffset dy="4"/>
<feGaussianBlur stdDeviation="3"/>
<feComposite in2="hardAlpha" operator="out"/>
<feColorMatrix type="matrix" values="0 0 0 0 0.92549 0 0 0 0 0.643137 0 0 0 0 0.00784314 0 0 0 0.25 0"/>
<feBlend mode="normal" in2="BackgroundImageFix" result="effect1_dropShadow_3340_18558"/>
<feBlend mode="normal" in="SourceGraphic" in2="effect1_dropShadow_3340_18558" result="shape"/>
</filter>
</defs>
</svg>
