<svg width="148" height="30" viewBox="0 0 148 30" fill="none" xmlns="http://www.w3.org/2000/svg">
<ellipse cx="34.5" cy="4" rx="3.5" ry="4" fill="#ECA402"/>
<path d="M0 14.2354V10.5267H12.7749V14.2354H0ZM4.55609 29.4541V13.7169H8.20002V29.4541H4.55609Z" fill="white"/>
<path d="M15.0649 29.4541V10.5294H18.7089V29.4541H15.0649ZM18.0647 21.8063V18.073H26.1966V21.8063H18.0647ZM25.5524 29.4541V10.5294H29.1963V29.4541H25.5524Z" fill="white"/>
<path d="M32.8848 29.4541V10.5294H36.5287V29.4541H32.8848Z" fill="white"/>
<path d="M40.2148 29.4541V10.5294H46.1908L52.3008 26.006H53.0555L52.6112 26.4724V10.5294H56.0318V29.4541H50.011L43.901 13.9775H43.1464L43.5907 13.5112V29.4541H40.2124H40.2148Z" fill="white"/>
<path d="M59.6807 29.4541V10.5294H63.3246V29.4541H59.6807ZM70.3444 29.4541L64.7446 20.6131H62.4994L69.2983 10.5267H73.4759L67.3658 19.5734L67.3212 17.7328L74.743 29.4514H70.3444V29.4541Z" fill="white"/>
<path d="M85.7428 30C84.5438 30 83.4953 29.7284 82.5996 29.1825C81.7039 28.6367 81.0033 27.896 80.5002 26.9524C79.9972 26.0115 79.7456 24.9609 79.7456 23.8033V23.4412C79.7456 22.1794 80.0489 21.0547 80.6578 20.0699C81.2643 19.0852 82.0495 18.3418 83.0134 17.8398L84.4569 20.0178C84.0572 20.3278 83.721 20.7749 83.446 21.3537C83.1709 21.9325 83.0345 22.61 83.0345 23.3891C83.0345 23.9953 83.1427 24.5439 83.3566 25.035C83.5706 25.526 83.8926 25.9073 84.3228 26.1761C84.7531 26.4449 85.2938 26.5766 85.945 26.5766C86.8031 26.5766 87.593 26.3078 88.3124 25.7729C89.0317 25.2379 89.6077 24.3903 90.045 23.2327C90.4823 22.0751 90.7009 20.5637 90.7009 18.6956H93.8112C93.8112 20.528 93.5996 22.1437 93.1788 23.5427C92.758 24.9417 92.1702 26.1212 91.4226 27.0813C90.675 28.0414 89.8123 28.7656 88.8343 29.2593C87.8563 29.7531 86.8266 29.9972 85.7452 29.9972L85.7428 30ZM91.0535 29.4541L84.8542 21.65C84.1724 20.7859 83.6317 20.0288 83.232 19.3814C82.8324 18.734 82.5432 18.1059 82.3645 17.5024C82.1859 16.8962 82.0989 16.2405 82.0989 15.5328C82.0989 14.4603 82.2987 13.5358 82.6984 12.7595C83.098 11.9832 83.7163 11.3715 84.5532 10.9326C85.3902 10.491 86.4739 10.2715 87.8093 10.2715C88.357 10.2715 88.9166 10.3017 89.4878 10.3621C90.0567 10.4224 90.5575 10.4965 90.9877 10.5815V14.0049C90.6915 13.9528 90.3295 13.9007 89.8992 13.8486C89.469 13.7964 89.0435 13.758 88.6227 13.7306C88.1995 13.7059 87.8563 13.6922 87.5883 13.6922C86.7137 13.6922 86.1284 13.8732 85.8321 14.2381C85.5359 14.6002 85.3878 15.1022 85.3878 15.7413C85.3878 16.3283 85.5101 16.8962 85.7546 17.4393C85.9991 17.9824 86.4034 18.6106 86.9653 19.3183L94.9866 29.4541H91.0535ZM88.6086 19.2388V16.2049H94.9185V19.2388H88.6086Z" fill="#ECA402"/>
<path d="M106.873 29.9479C105.643 29.9479 104.581 29.6763 103.685 29.1304C102.789 28.5873 102.101 27.7945 101.619 26.7576C101.137 25.7208 100.897 24.4589 100.897 22.9722V22.0121H104.496V23.2053C104.496 24.0337 104.708 24.7058 105.129 25.2133C105.552 25.7235 106.132 25.9786 106.873 25.9786C107.614 25.9786 108.173 25.7235 108.594 25.2133C109.017 24.7031 109.226 24.0337 109.226 23.2053V13.7169H112.87V22.9722C112.87 24.4589 112.63 25.7208 112.148 26.7576C111.667 27.7945 110.978 28.5846 110.082 29.1304C109.186 29.6736 108.117 29.9479 106.871 29.9479H106.873ZM102.785 14.2354V10.5267H112.873V14.2354H102.785Z" fill="white"/>
<path d="M135.446 29.5858V10.3758H139.001V29.5858H135.446ZM138.557 20.8462V18.3061H141.756C142.452 18.3061 142.955 18.0976 143.268 17.6834C143.578 17.2692 143.733 16.7151 143.733 16.0238C143.733 15.2969 143.578 14.7264 143.268 14.3121C142.957 13.8979 142.452 13.6895 141.756 13.6895H138.557V10.3703H141.535C143.402 10.3703 144.836 10.8284 145.835 11.7446C146.834 12.6608 147.335 13.9665 147.335 15.659V16.0485C147.335 17.2253 147.079 18.1662 146.568 18.8739C146.058 19.5817 145.37 20.0891 144.502 20.3909C143.635 20.6926 142.647 20.8435 141.535 20.8435H138.557V20.8462ZM145.179 19.4335C146.054 19.7545 146.742 20.2674 147.246 20.9752C147.749 21.6829 148 22.643 148 23.8527V24.2148C148 25.3394 147.777 26.3023 147.335 27.106C146.891 27.9097 146.239 28.5242 145.379 28.9466C144.518 29.3691 143.454 29.583 142.179 29.583H138.557V26.2639H142.356C143.037 26.2639 143.548 26.0554 143.888 25.6412C144.229 25.227 144.399 24.64 144.399 23.8774C144.399 23.1148 144.227 22.5332 143.888 22.1273C143.548 21.7213 143.037 21.5183 142.356 21.5183H138.557V18.9507H142.179C143.305 18.9507 144.305 19.1098 145.179 19.4308" fill="white"/>
<path d="M132.136 16.1693C131.765 15.0199 131.217 13.9775 130.493 13.0449C129.766 12.1122 128.864 11.3633 127.782 10.801C126.95 10.3676 126.014 10.1042 124.98 10.0055V14.0132C125.377 14.0845 125.751 14.1997 126.094 14.367C126.701 14.6605 127.223 15.0802 127.66 15.6234C128.097 16.1693 128.431 16.8084 128.659 17.5408C128.779 17.9276 128.866 18.3363 128.925 18.7642H132.656C132.585 17.8919 132.414 17.0251 132.136 16.1665V16.1693Z" fill="#ECA402"/>
<path d="M128.941 20.9587C128.887 21.4223 128.8 21.8694 128.668 22.2974C128.447 23.0243 128.116 23.6634 127.678 24.2148C127.241 24.7689 126.715 25.1996 126.101 25.5123C125.485 25.8222 124.794 25.9786 124.023 25.9786C123.252 25.9786 122.563 25.8222 121.956 25.5123C121.35 25.2023 120.826 24.7689 120.391 24.2148C119.953 23.6607 119.624 23.0215 119.401 22.2974C119.178 21.5732 119.067 20.7941 119.067 19.963C119.067 19.0824 119.178 18.2732 119.401 17.5381C119.624 16.8029 119.953 16.1638 120.391 15.6206C120.828 15.0775 121.35 14.6578 121.956 14.3643C122.307 14.1942 122.687 14.079 123.094 14.0077V10C122.05 10.0988 121.108 10.3621 120.268 10.7982C119.187 11.3606 118.284 12.1067 117.558 13.0421C116.831 13.9748 116.288 15.0171 115.924 16.1665C115.562 17.3159 115.378 18.4789 115.378 19.653V20.2236C115.378 21.2769 115.552 22.3742 115.9 23.5153C116.248 24.6564 116.777 25.7153 117.49 26.6918C118.2 27.6684 119.1 28.4556 120.188 29.0509C121.277 29.6461 122.556 29.9451 124.02 29.9451C125.485 29.9451 126.764 29.6461 127.852 29.0509C128.941 28.4556 129.841 27.6684 130.551 26.6918C131.261 25.7153 131.795 24.6564 132.15 23.5153C132.423 22.6375 132.592 21.7844 132.653 20.956H128.934L128.941 20.9587Z" fill="white"/>
<path d="M124.037 22.4071C125.242 22.4071 126.219 21.2674 126.219 19.8615C126.219 18.4556 125.242 17.3159 124.037 17.3159C122.832 17.3159 121.855 18.4556 121.855 19.8615C121.855 21.2674 122.832 22.4071 124.037 22.4071Z" fill="#ECA402"/>
</svg>
